<mxfile host="app.diagrams.net" modified="2020-03-19T22:22:47.590Z" agent="Mozilla/5.0 (Windows NT 10.0; Win64; x64) AppleWebKit/537.36 (KHTML, like Gecko) Chrome/80.0.3987.132 Safari/537.36 Edg/80.0.361.66" etag="lkf-vK4ZEkGoHnG0GWwZ" version="12.8.8" type="github">
  <diagram id="R-13I4GzPsgyA8yoVRYu" name="Page-1">
    <mxGraphModel dx="1550" dy="860" grid="1" gridSize="10" guides="1" tooltips="1" connect="1" arrows="1" fold="1" page="1" pageScale="1" pageWidth="850" pageHeight="1100" background="#ffffff" math="0" shadow="1">
      <root>
        <mxCell id="0" />
        <mxCell id="1" parent="0" />
      </root>
    </mxGraphModel>
  </diagram>
</mxfile>
